<svg width="161" height="95" viewBox="0 0 161 95" fill="none" xmlns="http://www.w3.org/2000/svg">
<path d="M32.8118 67.2994C29.1732 67.1706 26.1786 66.1724 23.8602 64.3048C23.4094 63.9506 22.3468 62.888 21.9926 62.4372C21.0588 61.2458 20.4148 60.0866 19.964 58.7986C18.6438 54.838 19.32 49.6538 21.896 43.9544C24.1178 39.0922 27.531 34.2622 33.488 27.5646C34.3574 26.5664 36.9656 23.7006 36.9978 23.7006C36.9978 23.7006 36.869 23.9582 36.6758 24.248C35.1302 26.8562 33.81 29.883 33.0694 32.5556C31.9102 36.806 32.039 40.4446 33.488 43.2782C34.4862 45.2102 36.1606 46.9168 38.0604 47.8506C41.377 49.4928 46.2714 49.6216 52.1962 48.237C52.6148 48.1404 72.9008 42.763 97.2762 36.2586C121.716 29.7542 141.68 24.4412 141.68 24.4412C141.68 24.4412 85.008 48.6878 55.5772 61.278C50.9082 63.2744 49.6846 63.7574 47.495 64.5302C41.8922 66.4944 36.869 67.4604 32.8118 67.2994Z" fill="white"/>
</svg>
