<svg width="30" height="31" viewBox="0 0 30 31" fill="none" xmlns="http://www.w3.org/2000/svg">
<path d="M27.6667 30.5L17.1667 20C16.3333 20.6667 15.375 21.1944 14.2917 21.5833C13.2083 21.9722 12.0556 22.1667 10.8333 22.1667C7.80556 22.1667 5.24333 21.1178 3.14667 19.02C1.05 16.9222 0.00111111 14.36 0 11.3333C0 8.30556 1.04889 5.74333 3.14667 3.64667C5.24444 1.55 7.80667 0.501111 10.8333 0.5C13.8611 0.5 16.4233 1.54889 18.52 3.64667C20.6167 5.74444 21.6656 8.30667 21.6667 11.3333C21.6667 12.5556 21.4722 13.7083 21.0833 14.7917C20.6944 15.875 20.1667 16.8333 19.5 17.6667L30 28.1667L27.6667 30.5ZM10.8333 18.8333C12.9167 18.8333 14.6878 18.1039 16.1467 16.645C17.6056 15.1861 18.3344 13.4156 18.3333 11.3333C18.3333 9.25 17.6039 7.47889 16.145 6.02C14.6861 4.56111 12.9156 3.83222 10.8333 3.83333C8.75 3.83333 6.97889 4.56278 5.52 6.02167C4.06111 7.48056 3.33222 9.25111 3.33333 11.3333C3.33333 13.4167 4.06278 15.1878 5.52167 16.6467C6.98056 18.1056 8.75111 18.8344 10.8333 18.8333Z" fill="white"/>
</svg>
